<?xml version="1.0" encoding="utf-8"?>
<!-- Generator: Adobe Illustrator 28.3.0, SVG Export Plug-In . SVG Version: 6.00 Build 0)  -->
<svg version="1.1" id="Layer_1" xmlns="http://www.w3.org/2000/svg" xmlns:xlink="http://www.w3.org/1999/xlink" x="0px" y="0px"
	 viewBox="0 0 508 508" style="enable-background:new 0 0 508 508;" xml:space="preserve">
<style type="text/css">
	.st0{fill:#FFFFFF;}
	.st1{fill:#F4792A;}
</style>
<g id="monogram_solid">
	<circle class="st0" cx="253.5" cy="254" r="234.1"/>
	<path class="st1" d="M379.8,181.1c-5.1,0-26.4,0-28.6,0.4v179.2c2.2,0.4,23.8,0.4,26.4,0.4c23.3,0,34.2-27.3,34.2-97.1
		C411.8,198.5,398,181.1,379.8,181.1z"/>
	<path class="st1" d="M254,2C115.1,2,2,115.1,2,254s113.1,252,252,252s252-113,252-252S393,2,254,2z M213.1,154.5
		c-7.3,0-12,4.6-12,11.7v211.1c0,6.4,4.7,11.3,12,11.3v6.7c-9.4,1.1-48.6,5.7-78.8,5.7c-34.2,0-56.3-17.7-68.3-32.2
		c2.2-6,2.5-11,2.5-20.5V167.6c0-13.4,7.3-20.2,7.3-20.2h48.7v6.7c-6.9,0-12,4.6-12,13.5V344c0,15.2,10.5,20.9,21.8,20.9
		c12,0,22.2-6.7,22.2-20.9V167.6c0-14.3,5-20,5-20c22.9,0,51.6-0.2,51.6-0.2L213.1,154.5z M218.4,439.4l1.4-6
		c6.9,0,12.9-4.6,12.9-16.2V121.6H124c-11.3,0-17.6,4.6-20.2,11.3l-7.3-2l10.6-45.3c2.6,1,8.6,1.7,17.5,1.7h261.5
		c5,0,11.9-0.7,14.6-1.7l10.6,45.3l-7.3,2c-3.6-7.3-8.3-11.3-19.9-11.3h-109v295.6c0,11.9,5.3,16.2,12.6,16.2l1.5,6L218.4,439.4z
		 M372.2,397.2c-30.2,0-67.8-1.1-77.3-2.1v-6.7c7.3,0,12-5,12-11.3V165.9c0-7.1-4.7-11.7-12-11.7v-7.1c11.6-1.1,50.4-2.5,76.6-2.5
		c56,0,86.2,29.8,86.2,119.4C457.6,355.7,432.5,397.2,372.2,397.2L372.2,397.2z"/>
</g>
</svg>
